/* XPM */
static char *axg9o_92bxu[] = {
/* columns rows colors chars-per-pixel */
"59 59 115 2 ",
"   c #1F1219",
".  c #22141A",
"X  c #291A1D",
"o  c #31211F",
"O  c #261720",
"+  c #271821",
"@  c #291A23",
"#  c #2D1D2A",
"$  c #301F2E",
"%  c #312122",
"&  c #382722",
"*  c #3C2A24",
"=  c #32212F",
"-  c #3E2B2C",
";  c #352334",
":  c #372538",
">  c #39263A",
",  c #412F26",
"<  c #422F29",
"1  c #453227",
"2  c #453228",
"3  c #4F3A2B",
"4  c #503B2B",
"5  c #57412D",
"6  c #5B4432",
"7  c #5E4832",
"8  c #654D33",
"9  c #695135",
"0  c #735937",
"q  c #745A39",
"w  c #83683F",
"e  c #8A6C41",
"r  c #876E49",
"t  c #8F7142",
"y  c #957644",
"u  c #9A7A45",
"i  c #997B49",
"p  c #A18047",
"a  c #A38249",
"s  c #AB894C",
"d  c #B18E4E",
"f  c #B7924F",
"g  c #A98C5A",
"h  c #B79350",
"j  c #B99551",
"k  c #BD9955",
"l  c #BD9B5B",
"z  c #B89E6E",
"x  c #C29E57",
"c  c #C09E5A",
"v  c #C6A35B",
"b  c #C9A65C",
"n  c #CEAB5F",
"m  c #C3A366",
"M  c #CCAA64",
"N  c #C6A669",
"B  c #CFAF6C",
"V  c #D1AE61",
"C  c #D6B364",
"Z  c #D9B766",
"A  c #DAB867",
"S  c #DBB868",
"D  c #CBAE74",
"F  c #CFB37C",
"G  c #D2B67F",
"H  c #E1BF6B",
"J  c #E5C36E",
"K  c #E7C571",
"L  c #EBCA72",
"P  c #E2C47C",
"I  c #F1CF76",
"U  c #F1D076",
"Y  c #F6D57A",
"T  c #F8D77B",
"R  c #F8D87D",
"E  c #C8B080",
"W  c #D7BF8C",
"Q  c #DBC082",
"!  c #DBC28B",
"~  c #DCC695",
"^  c #DEC897",
"/  c #DDC798",
"(  c #DEC899",
")  c #EACF89",
"_  c #F8DC8D",
"`  c #ECD496",
"'  c #EDD69B",
"]  c #F7DE98",
"[  c #F9E09A",
"{  c #E4D1A4",
"}  c #E9D7AD",
"|  c #F3DEA6",
" . c #F1DDA9",
".. c #EEDEB7",
"X. c #EEDFB8",
"o. c #F6E1A8",
"O. c #FAE5A8",
"+. c #FAE7AE",
"@. c #F7E6B7",
"#. c #F0E0B9",
"$. c #F0E1BA",
"%. c #F1E3BC",
"&. c #F2E4BE",
"*. c #F3E5BF",
"=. c #FBEAB9",
"-. c #FCEBBA",
";. c #FBECBF",
":. c #F5E7C2",
">. c #F7EAC7",
",. c #F7EBC8",
"<. c #F8ECC8",
"1. c #F9EDCB",
"2. c #FAEECD",
"3. c #FDF3D2",
"4. c #FDF3D4",
/* pixels */
". . . . . . . . . . . . . . . . . . . . . . . . . . . . . . . . . . . . . . . . . . . . . . . . . . . . . . . . . . . ",
"@ @ @ @ @ @ @ @ @ @ @ @ @ @ @ @ @ @ @ @ @ @ @ @ @ @ @ @ @ @ @ @ @ @ @ @ @ @ @ @ @ @ @ @ @ @ @ @ @ @ @ @ @ @ @ @ @ @ @ ",
"= = = = = = = = = = = = = = = = = = = = = = = = = = = = = = = = = = = = = = = = = = = = = = = = = = = = = = = = = = = ",
"= = = = = = = = = = = = = = = = = = = = = = = = = = = = = = = = = = = = = = = = = = = = = = = = = = = = = = = = = = = ",
"= = = = = = = = = = = = = = = = = = = = = = = = = = = = = = = = = = = = = = = = = = = = = = = = = = = = = = = = = = = ",
"; = = = ; ; ; ; ; ; ; ; ; ; ; ; ; ; ; ; ; ; ; ; ; ; ; ; ; ; ; ; ; ; ; ; ; ; ; ; ; ; ; ; ; ; ; ; ; ; ; ; ; ; ; ; = = ; ",
"; = = ; > > > > > > > > > > > > > > > > > > > > > > > > > > > > > > > > > > > > > > > > > > > > > > > > > > > ; = = ; ",
"; = = ; > > > > > > > > > > > > > > > > > > > > > > > > > > > > > > > > > > > > > > > > > > > > > > > > > > > ; = = ; ",
"; = = ; > > > > > > > > > > > > > > > > > > > > > > > > > > > > > > > > > > > > > > > > > > > > > > > > > > > ; = = ; ",
"; = = ; > > > > > > > > > > > > > > > > > > > > ; @ @ @ @ @ @ @ @ @ @ @ @ @ ; > > > > > > > > > > > > > > > > ; = = ; ",
"; = = ; > > > > > > > > > > > > > > > > > > > > # . . . . . . . . . . . . . ; > > > > > > > > > > > > > > > > ; = = ; ",
"; = = ; > > > > > > > > > > > > > > > > > > > > # . . . . . . . . . . . . . ; > > > > > > > > > > > > > > > > ; = = ; ",
"; = = ; > > > > > > > > > > > > > > > > > > > > = X X X X X X X X X X X X X ; > > > > > > > > > > > > > > > > ; = = ; ",
"; = = ; ; > > > > > > > > > > > > > > > > @ + O 6 y y y y y y y y y y y y t - O + # > > > > > > > > > > > > > ; = = ; ",
"= = = ; : > > > > > > > > > > > > > > > > O .   9 k j j j j j j j j j j j d 2 . . # > > > > > > > > > > > > > ; = = ; ",
"= = = ; : > > > > > > > > > > > > > > > > O .   9 j h h h h h h h h h h j d ,   . # > > > > > > > > > > > > > ; = = ; ",
"; ; ; ; > > > > > > > > > > > > > > ; ; ; % o X q c l l l l l l l l l k k h 3 X o = ; ; : > > > > > > > > > > ; = = ; ",
"> > > > > > > > > > > > > > > > > ; . . @ e a p E *.*.*.*.*.*.*.*.*. .L L L h a a 9 . . @ ; > > > > > > > > > ; = = ; ",
"> > > > > > > > > > > > > > > > > ; . . X u j h ! 3.3.3.3.3.3.3.3.3.=.R T Y v j k q . . . ; > > > > > > > > > ; = = ; ",
"> > > > > > > > > > > > > > > > > ; . . X u j f W 3.3.3.3.3.3.3.3.3.=.R T Y v f j 0   . . ; > > > > > > > > > ; = = ; ",
"> > > > > > > > > > > > > > ; ; ; ; * * 2 g N m ( 3.3.2.%.#.#.#.#.#. .T T Y B N N r * * * ; ; ; : > > > > > > ; = = ; ",
"> > > > > > > > > > > > > > @ . . 3 s s h } <.>.<.3.3.*.m l l l l l M T T R @.,.<.! s s u % . . = > > > > > > ; = = ; ",
"> > > > > > > > > > > > > > @ . . 4 h j l ..3.3.3.3.3.%.l h h h h h b T T R ;.3.3.^ h j a o . . $ > > > > > > ; = = ; ",
"> > > > > > > > > > > > > > @ . . 4 h h l ..3.3.3.3.3.*.l f f h h h b T T R ;.3.4./ h j a o . . $ > > > > > > ; = = ; ",
"> > > > > > > > > > > > > > @ .   3 h h l ..3.3.*.} } { F D D M b b V J J K o.=.-.! h j a o . . $ > > > > > > ; = = ; ",
"> > > > > > > > > > > > > > @ .   3 h j l ..3.3.~ j j m :.2.2.] T T J j j k L R R S h j a o . . $ > > > > > > ; = = ; ",
"> > > > > > > > > > > > > > @ .   3 h j l ..3.3.~ f f m >.3.3.[ T T J j h j L T T A h j a o . . $ > > > > > > ; = = ; ",
"> > > > > > > > > > > > > > @ .   3 h j l X.3.3.~ f h m >.3.3.[ T T J j h j L T T S h j a o . . $ > > > > > > ; = = ; ",
"> > > > > > > > > > > > > > @ .   3 h j k ' +.+.Q h h v | +.+._ T T J j j j L T T S h j a o . . $ > > > > > > ; ; ; ; ",
"> > > > > > > > > > > > > > @ .   3 h j k L T T Z h h x U T T T T T J j j j L T T S h j a % . . $ > > > > > > > > > > ",
"> > > > > > > > > > > > > > @ .   4 h j k L T T Z h h x U T T T T T J j j j L T T S h j a o . . $ > > > > > > > > > > ",
"> > > > > > > > > > > > > > @ .   4 h j k L T T Z h h x U T T T T T J j h j L T T S h j a o . . $ > > > > > > > > > > ",
"> > > > > > > > > > > > > > @ .   3 h j k ` O.O.) Z Z Z C C C C C C C Z Z A I T T A h j a o . . $ > > > > > > ; ; ; ; ",
"> > > > > > > > > > > > > > @ .   3 h j l X.3.3.O.T T L k h h h h h b T T T T T T A h j a o . . $ > > > > > > ; = = = ",
"> > > > > > > > > > > > > > @ .   3 h j l ..3.3.O.T T L k h j j j h b T T T T T T A h j a o . . $ > > > > > > ; = = = ",
"> > > > > > > > > > > > > > @ .   3 h h l ..3.3.O.T T L k h j j j h b T T T T T T A h j a % . . $ > > > > > > ; = = = ",
"> > > > > > > > > > > > > > ; = $ - 5 5 7 z G F P T T U J H H H H H K T T T C n V i 5 5 4 = $ = ; > > > > > > ; ; ; ; ",
"> > > > > > > > > > > > > > > > > ; .   X u j f C T T T T T T T T T T T T U v f j 0     . ; > > > > > > > > > > > > > ",
"> > > > > > > > > > > > > > > > > ; . . X u j h C T T T T T T T T T T T T Y v h j q . . . ; > > > > > > > > > > > > > ",
"> > > > > > > > > > > > > > > > > ; . . X y f d V T T Y Y Y Y Y Y Y Y Y Y I x d h 0 . . O ; > > > > > > > > > > > > > ",
"> > > > > > > > > > > > > > > > > : ; ; ; < 1 1 w b v v v v v v v v v v v x 8 1 1 - ; ; ; > > > > > > > > > > > > > > ",
"> > > > > > > > > > > > > > > > > > > > > O     8 j h h h h h h h h h h h s ,     # > > > > > > > > > > > > > > > > > ",
"> > > > > > > > > > > > > > > > > > > > > O .   9 j j j j j j j j j j j j d , . . # > > > > > > > > > > > > > > > > > ",
"> > > > > > > > > > > > > > > > > > > > > @ . . 8 s s s s s s s s s s s s a , . . # > > > > > > > > > > > > > > > > > ",
"> > > > > > > > > > > > > > > > > > > > > ; ; ; = & & & & & & & & & & & & & ; ; ; ; > > > > > > > > > > > > > > > > > ",
"> > > > > > > > > > > > > > > > > > > > > > > > # . . . . . . . . . . . . . ; > > > > > > > > > > > > > > > > > > > > ",
"> > > > > > > > > > > > > > > > > > > > > > > > # . . . . . . . . . . . . . ; > > > > > > > > > > > > > > > > > > > > ",
"> > > > > > > > > > > > > > > > > > > > > > > > $ . O . . . . . O . O O O + ; > > > > > > > > > > > > > > > > > > > > ",
"> > > > > > > > > > > > > > > > > > > > > > > > > ; ; ; = = = ; : : : : : : > > > > > > > > > > > > > > > > > > > > > ",
"> > > > > > > > > > > > > > > > > > > > > > > > > > > > ; = = ; > > > > > > > > > > > > > > > > > > > > > > > > > > > ",
"> > > > > > > > > > > > > > > > > > > > > > > > > > > > ; = = ; > > > > > > > > > > > > > > > > > > > > > > > > > > > ",
"> > > > > > > > > > > > > > > > > > > > > > > > > > > > ; = = ; > > > > > > > > > > > > > > > > > > > > > > > > > > > ",
"> > > > > > > > > > > > > > > > > > > > > > > > > > > > ; = = ; > > > > > > > > > > > > > > > > > > > > > > > > > > > ",
"> > > > > > > > > > > > > > > > > > > > > > > > > > > > ; = = ; > > > > > > > > > > > > > > > > > > > > > > > > > > > ",
"> > > > > > > > > > > > > > > > > > > > > > > > > > > > ; = = ; > > > > > > > > > > > > > > > > > > > > > > > > > > > ",
"> > > > ; ; ; ; ; ; ; ; ; ; ; ; ; ; ; ; ; ; ; ; ; ; ; ; ; = = ; ; ; ; ; ; ; ; ; ; : > > > ; ; ; > > > > > > > > > > > ",
"> > > > ; = = = = = = = = = = = = = = = = = = = = = = = = = = = = = = = = = = = = ; > > > ; = = ; > > > > > > > > > > ",
"> > > > ; = = = = = = = = = = = = = = = = = = = = = = = = = = = = = = = = = = = = ; > > > ; = = ; > > > > > > > > > > ",
"> > > > ; = = = = = = = = = = = = = = = = = = = = = = = = = = = = = = = = = = = = ; > > > ; = = ; > > > > > > > > > > "
};
