/* XPM */
static char *a84e9_bo65a[] = {
/* columns rows colors chars-per-pixel */
"59 59 8 1 ",
"  c #291923",
". c #32212F",
"X c #332231",
"o c #342231",
"O c #352334",
"+ c #362435",
"@ c #372537",
"# c #39263A",
/* pixels */
" ..........................................................",
" ..........................................................",
" ...XOOOOOOOOOOOOOOOOOOOX...oOOOOOOOOOOOOOOOOOOOOOOOOOOo...",
" ...O###################o..X###########################@...",
" ...O###################o..X###########################@...",
" ...O###################o..X###########################@...",
" ...O###################o..X###########################@...",
" ...O###################o...@##########################@...",
" ...O###################o..X###########################@...",
" ...O###################o..X###########################@...",
" ...O###################o..X####oooo########oooooooooooX...",
" ...O###################o..X@###X..X#######@...............",
" ...O###################o...####X..X#######@...............",
" ...O###################o.XX####XXXX#######@XXXXXXXX..XXXXX",
" ...O################################################@#####",
" ...O######################################################",
" ...O######################################################",
" ...O######################################################",
" ...O######################################################",
" ...O######################################################",
" ...O######################################################",
" ...O######################################################",
" ...O######################################################",
" ...O######################################################",
" ...O######################################################",
" ...O######################################################",
" ...O######################################################",
" ...O######################################################",
" ...O######################################################",
" ...O######################################################",
" ...O######################################################",
" ...O######################################################",
" ...O######################################################",
" ...O######################################################",
" ...O######################################################",
" ...O######################################################",
" ...O######################################################",
" ...O######################################################",
" ...O######################################################",
" ...O######################################################",
" ...O######################################################",
" ...O######################################################",
" ...O######################################################",
" ...O######################################################",
" ...O######################################################",
" ...O######################################################",
" ...O######################################################",
" ...O######################################################",
" ...O######################################################",
" ...O######################################################",
" ...O######################################################",
" ...O######################################################",
" ...O######################################################",
" ...O######################################################",
" ...O######################################################",
" ...O######################################################",
" ...O###################@OOOOOOOOOOOOOOOOOOOOOOOOOOOOOOOOOO",
" ...O###################o..................................",
" ...O###################o.................................."
};
