/* XPM */
static char *a8hr5_n6i8a[] = {
/* columns rows colors chars-per-pixel */
"59 59 199 2 ",
"   c #0C0506",
".  c #0E0609",
"X  c #0C0A0B",
"o  c #100407",
"O  c #11060B",
"+  c #140A0D",
"@  c #190C0B",
"#  c #070411",
"$  c #0C0713",
"%  c #0F0814",
"&  c #130B14",
"*  c #1A0D14",
"=  c #150D1A",
"-  c #1B0F18",
";  c #141013",
":  c #1E1116",
">  c #161219",
",  c #1E1219",
"<  c #1F191D",
"1  c #211317",
"2  c #23151A",
"3  c #24191E",
"4  c #2C1B1D",
"5  c #321E1B",
"6  c #36211C",
"7  c #231521",
"8  c #251C23",
"9  c #2B1B23",
"0  c #251929",
"q  c #2D1D2B",
"w  c #311F21",
"e  c #311F2E",
"r  c #272226",
"t  c #2B2126",
"y  c #262429",
"u  c #2C252A",
"i  c #342122",
"p  c #3B2624",
"a  c #3C2926",
"s  c #33242A",
"d  c #34292C",
"f  c #3C2A2C",
"g  c #2D2E32",
"h  c #362435",
"j  c #312D32",
"k  c #3D2E32",
"l  c #372538",
"z  c #39263A",
"x  c #353237",
"c  c #3A3335",
"v  c #353438",
"b  c #3B353B",
"n  c #432B25",
"m  c #442E2A",
"M  c #492E28",
"N  c #46312C",
"B  c #4C322B",
"V  c #52352D",
"C  c #56392F",
"Z  c #5A3A2C",
"A  c #422C31",
"S  c #433235",
"D  c #4A3635",
"F  c #473937",
"G  c #493935",
"H  c #453438",
"J  c #4B363A",
"K  c #4C3A3D",
"L  c #543A34",
"P  c #543B36",
"I  c #5B3E34",
"U  c #543E3E",
"Y  c #5D4136",
"T  c #56413F",
"R  c #5E433C",
"E  c #6A422B",
"W  c #634335",
"Q  c #6A4434",
"!  c #6B4937",
"~  c #63463B",
"^  c #694739",
"/  c #67483C",
"(  c #6C4A3A",
")  c #714D3B",
"_  c #794E3D",
"`  c #73503F",
"'  c #7C513E",
"]  c #3D3D43",
"[  c #413E44",
"{  c #4D3B40",
"}  c #513E41",
"|  c #3E4146",
" . c #3F4348",
".. c #44464C",
"X. c #49454C",
"o. c #45484E",
"O. c #554142",
"+. c #5B4442",
"@. c #58484D",
"#. c #4D4950",
"$. c #544E55",
"%. c #56535B",
"&. c #5B565C",
"*. c #614A46",
"=. c #6B4E45",
"-. c #704F40",
";. c #6D5045",
":. c #755343",
">. c #7A5646",
",. c #7E5946",
"<. c #71564B",
"1. c #795748",
"2. c #7D5A48",
"3. c #655857",
"4. c #775D52",
"5. c #76615A",
"6. c #5C5C64",
"7. c #635F66",
"8. c #5E6169",
"9. c #63646C",
"0. c #69666C",
"q. c #666B73",
"w. c #6B6C75",
"e. c #746F76",
"r. c #6D747D",
"t. c #72727B",
"y. c #7D7478",
"u. c #80563D",
"i. c #81583F",
"p. c #825A46",
"a. c #875944",
"s. c #8C5C45",
"d. c #825C49",
"f. c #925E46",
"g. c #86614D",
"h. c #8D624C",
"j. c #956047",
"k. c #92634B",
"l. c #9C654A",
"z. c #9E694F",
"x. c #84675A",
"c. c #9E6A50",
"v. c #A0674C",
"b. c #A2684C",
"n. c #A56A4E",
"m. c #A96C4F",
"M. c #A16C51",
"N. c #AA6F51",
"B. c #AD7153",
"V. c #B17354",
"C. c #B37354",
"Z. c #B47354",
"A. c #B77656",
"S. c #B87756",
"D. c #B97857",
"F. c #89746D",
"G. c #847777",
"H. c #6F7780",
"J. c #757680",
"K. c #727B83",
"L. c #7B7A84",
"P. c #7B7B85",
"I. c #847C82",
"U. c #7C838C",
"Y. c #83828D",
"T. c #8B8389",
"R. c #868691",
"E. c #8A8790",
"W. c #858A94",
"Q. c #8A8A95",
"!. c #8E8E9A",
"~. c #85909A",
"^. c #8E909C",
"/. c #91919D",
"(. c #8F99A4",
"). c #9495A1",
"_. c #9599A5",
"`. c #989AA6",
"'. c #929EA9",
"]. c #999EAA",
"[. c #94A1AC",
"{. c #9CA2AE",
"}. c #9DA6B2",
"|. c #9EABB6",
" X c #9FACB8",
".X c #A0A5AD",
"XX c #A2A9B4",
"oX c #A3ADB9",
"OX c #A5B1BD",
"+X c #A8B3BF",
"@X c #A6B4C0",
"#X c #AAB6C3",
"$X c #ACB9C6",
"%X c #AEBDCA",
"&X c #B1BFCC",
"*X c #B2C1CE",
"=X c #B4C4D1",
"-X c #B7C8D5",
";X c #B8C8D6",
/* pixels */
"z z z z z z z z z z z z z z z z q & & & & & & & & & 1 9 z z z q 1 * & & & & & & & & 7 z z z z z z z z z z z z z z z z ",
"z z z z z z z z z z z z z z z z s 3 4 4 4 4 3 3 4 4 1 9 l z z q 1 4 4 4 3 4 4 4 4 3 9 l z z z z z z z z z z z z z z z ",
"z z z z z z z z z 9 9 9 9 9 9 7 D -.a.l.l.l.:.:.j.a.4 2 9 9 9 3 , Q l.,.-.f.l.l.f.:.Y 9 9 9 9 9 9 9 h z z z z z z z z ",
"z z z z z z z z l 3 1 1 1 1 1 * D d.M.S.A.A.h.g.V.b.4 1 1 1 1 1 * _ D.k.d.B.A.A.B.h.( , 1 1 1 1 1 1 s z z z z z z z z ",
"z z z z z z z z l = & & & % % $ N d.z.A.V.V.h.d.B.l.4 * o . . + , _ A.k.d.N.A.Z.B.d.( & % % & & & & q z z z z z z z z ",
"z z z z z l l l l i i 9 9 i i i I d.z.A.V.V.h.d.B.l.4 3 x x x u * _ A.k.d.N.Z.V.N.d.-.p i i i 9 i i h l l l z z z z z ",
"z z z z z q 7 7 w f.l.:.,.l.v.v.k.d.z.A.V.V.h.d.B.v.1 ] |. XoXw.& _ A.k.d.N.Z.Z.B.d.s.v.v.b.s.:.s.b.B 7 7 9 l z z z z ",
"z z z z z 9 1 : 4 n.V.d.k.A.A.S.c.2.z.A.V.V.h.d.B.v.1 o.=X=X;XK.& _ A.k.d.N.A.A.B.d.h.A.A.S.c.d.M.S.V * 1 2 l z z z z ",
"z z z z z 7 & $ 2 b.B.d.h.V.V.A.z.d.M.S.A.A.h.d.V.b.1 ..%X*X=XK.& _ D.k.d.B.A.A.B.d.h.V.V.A.z.2.z.A.B # & - h z z z z ",
"z z h l l s i p B n.B.d.h.V.V.A.l.:.k.n.n.b.p.>.z.f.1 ..%X*X=XK.& ) n.p.:.l.n.n.l.:.p.V.V.A.z.2.z.A.Q p i i h h h l z ",
"z e 3 3 3 ~ ,.l.m.V.B.d.h.V.V.A.' 9 p p p p i i p p : o.%X*X=XK.& w p i i p p p p 9 C V.V.A.z.2.z.A.N.n.p.:.w 3 3 9 z ",
"z q : 1 : / g.B.A.A.N.d.h.V.V.A.) % & % % & & & % & * o.%X*X=XK.* * % & & & % % & $ n V.V.A.z.2.z.A.A.A.k.1.4 : : 7 z ",
"z 0 $ $ % ~ d.N.A.A.B.d.k.A.A.D.) & * & & & - : & & * o.=X=X;XK.* * & * : & & & & * n A.A.A.c.d.M.S.A.V.h.>.2 $ $ > z ",
"h A B B B ) d.N.V.v.j.:.,.l.l.v.! 8 i a a a i t p p : ] }.|. Xq.* i a i 9 p a a p 8 N l.l.l.s.:.s.l.N.V.h.,.C B B N h ",
", W B.N.N.h.d.N.N.M 4 4 4 i i 5 m K =.,.,.>.T K :.( 3 7 x v v u - L ,.+.K <.,.,.:.K D i w i 9 4 4 6 f.V.h.d.n.N.B.s.3 ",
"* Q S.A.A.k.d.N.m.4 $ & & & & $ u } ;.d.d.d.+.} 2.:.3 * o .   + , Y d.*.} 1.d.d.1.O.S & & & & & & & a.A.h.d.B.A.S.j.2 ",
"* Q A.V.V.k.d.B.N.4 & : - & & & s { =.d.d.2.+.} 2.:.3 - . . . + , I d.+.{ :.d.d.1.O.S * & & * : * & a.S.h.d.B.V.A.f.2 ",
"* Q A.V.V.p.( s.f.V f i s m m m D { =.d.d.2.+.} 2.:.2 9 X.$.6.[ * I d.*.{ :.d.d.1.} J m m m a i f m ' j.` :.N.V.A.f.2 ",
"* Q A.V.V.C , 2 i :.:.K +.,.,.,.=.{ =.d.d.2.+.} 2.:.1 b Q.].*XK.& I d.+.{ :.d.d.>.} +.,.,.,.=.K =.,.N 2 2 i b.A.A.f.2 ",
"* Q A.V.V.V & & , :.2.} +.d.d.d.=.{ =.d.d.2.+.} 2.:.1 b ^.}.-XK.& I d.+.{ :.d.d.>.} +.d.d.d.=.{ ;.d.a $ & 4 b.A.A.f.2 ",
"* Q D.A.A.V * & , :.1.} +.d.d.d.=.{ =.d.d.2.+.} 2.:.1 b !.{.=XK.& Y d.+.{ :.d.d.1.} +.d.d.d.=.{ =.d.a & * 4 n.A.D.j.2 ",
"* C f.s.s.L s N L ,.1.} +.d.d.d.=.{ =.d.d.2.+.} 2.:.1 b !.{.=XK.& Y d.+.{ :.d.d.1.} +.d.d.d.=.{ =.d.Y N a f a.s.s.) 2 ",
"1 1 , , 2 S } :.d.d.>.} +.d.d.d.=.{ =.d.d.2.+.} 2.:.1 b !.{.=XK.& I d.+.{ :.d.d.1.} +.d.d.d.=.{ =.d.d.2.+.K 3 , , , 1 ",
"2 * % % & k } >.d.d.>.} +.d.d.d.=.{ =.d.d.2.+.} 2.:.1 b !.{.=XK.& I d.+.{ :.d.d.1.} +.d.d.d.=.{ =.d.d.d.+.J , % & & 1 ",
"1 & X X X a J >.d.d.>.} +.d.d.d.=.{ =.d.d.2.+.} 2.:.1 b !.{.=XK.& Y d.*.} 1.d.d.1.} +.d.d.d.=.{ =.d.d.d.U S ; X X + 1 ",
"* o.K.r.r.w.0.*./ ,.1.} +.d.d.d.=.{ =.d.d.2.+.} 2.:.1 b !.{.=XK.& N ~ D k I ~ ~ Y K +.d.d.d.=.{ =.d.( ~ 0.w.r.r.K.8.2 ",
"* w.=X*X*X{.!.v 2 :.1.} +.d.d.d.=.{ =.d.d.2.+.} 2.:.1 b !.{.=XK.: , - , 1 , - - 3 K +.d.d.d.=.{ =.d.a , L.`.%X*X=X'.3 ",
"@ w.=X*X*X{.!.j : :.1.} +.d.d.d.=.{ =.d.d.2.+.} 2.:.1 b !.{.=XK.+ * & * * & + + , K +.d.d.d.=.{ =.d.p ; L._.%X=X=X'.3 ",
"* w.=X*X*X{.Q.x : :.2.} +.d.d.d.=.{ =.d.d.2.+.} 2.:.1 b !.{.=XK.+ + + ; ; ; ; ; < K +.d.d.d.=.{ ;.d.p , L.).$X*X=X'.3 ",
"* 8.oX#X*X+X}.t.7.R I K +.d.d.d.=.{ =.d.d.2.+.} 2.:.1 b !.`.oXW.9.9.9.K.U.U.U.U.J.k D d.d.d.=.{ U I 3.9.`.oX%X%XoXW.3 ",
"* %./.oX*X*X&X].Q.u , K +.d.d.d.=.{ =.d.d.2.+.} 2.:.1 b !./.^././././.@X=X=X=X=X X8 i d.d.d.=.{ s * t.).#X*X*X$X).t.2 ",
"* %./.oX=X=X*X].Q.y , K +.d.d.d.=.{ =.d.d.2.+.} 2.:.1 b !././././././.@X=X=X=X=X|.8 i d.d.d.=.{ s & t.).$X=X*X$X).J.2 ",
"* %./.oX=X*X*X].Q.u 2 K +.d.d.d.=.{ =.d.d.2.+.} 2.:.1 b !././././././.@X=X*X*X*X|.r i d.d.d.=.{ s : t.).#X*X*X$X_.J.2 ",
": b 6.q.H.r.r.9.&.~ Y K +.d.d.d.=.{ =.d.d.2.+.} 2.:.1 b !./.^.].oXU.&.w.r.r.K.$X|.8 i d.d.d.=.{ R W &.6.r.r.r.r.6.#.2 ",
"2 * O X X X X X : :.2.} +.d.d.d.=.{ =.d.d.2.+.} 2.:.1 b !./.^.oX=X9.. X X X y oX X8 i d.d.d.=.{ ;.d.p . X X X X O + 1 ",
"2 : * * * * * & 1 :.1.} +.d.d.d.=.{ =.d.d.2.+.} 2.:.1 b !./.!.oX-X9.O * : o r OX|.< 5 d.d.d.=.{ =.d.a & * * & & & * 2 ",
"2 2 1 1 1 2 2 , 4 :.1.} +.d.d.d.=.{ =.d.d.2.+.} 2.:.1 b !././.}.=X9.* 2 2 : j OXoXg a ,.d.d.=.{ =.d.m , 2 2 , , , 1 2 ",
", p L C C D S ~ ( ,.>.} +.d.d.d.=.{ =.d.d.2.+.} 2.:.1 b !.].+X^.9.3./ p , 9.L.#X%X'.U.B Y d.=.{ =.d.-./ D S ~ ^ ( I 2 ",
": m ( ( ( T } 1.d.d.>.} +.d.d.d.=.{ =.d.d.2.+.} 2.:.1 b !.{.-XK.  C g.f , L.`.$X*X-X[.> a d.=.{ =.d.d.d.+.O.2.d.d.( 1 ",
", n E E E L J >.d.d.>.} +.d.d.d.=.{ =.d.d.2.+.} 2.:.1 b !.{.=XK.& I d.p ; L.`.%X=X-X'.; p d.=.{ =.d.d.d.T J ' u.i.Q 1 ",
": N ) ( ( +.O.:.,.d.>.} +.d.d.d.=.{ =.d.d.2.+.} 2.:.1 b !.{.=XK.& I d.N u L.).@X%X%X'.g G p.=.K =.d.p.,.+.O.2.g.g.;.2 ",
"* 6.XX{.{.Q.L.T N >.1.} +.d.d.d.=.{ =.d.d.2.+.} 2.:.1 b !.{.=XK.& I d.y.L.F.F.G.G.6.r.[.L.n D { =.d.I N e.Y..XXXXXR.3 ",
"* r.-X=X=X}.!.x : :.1.} +.d.d.d.=.{ =.d.d.2.+.} 2.:.1 b !.{.=XK.& I d.T./.x.u.u.E o ..=X~.& s { =.d.p > L.`.%X=X-X[.3 ",
"* w.=X*X*X{.Q.j @ :.2.} +.d.d.d.=.{ =.d.d.d.+.} 2.:.1 b !.{.=XK.& I d.T./.x.p.d.:.: ..=X~.: d { ;.d.6 & J.).$X*X=X'.3 ",
"* q.*X&X*X}./.X.d :.:.} +.,.2.d.=.{ =.d.2.,.+.} >.:.1 b !.{.=XK.& I d.T./.x.,.d.:.: ..&XW.: d { =.,.F j Y.].%X*X&X(.3 ",
"* 6.].+X*X$X@XQ.L.D f K T ( ) ) ~ { ~ ) ) ( U } ( / 1 b !.{.=XK.& V ) I./.4.) ) / 1 ] ].t.: d { S p 0.Y.oX$X*X%X{.U.3 ",
"* %./.oX*X*X*X].Q.y , K U ^ ^ ^ R { R ^ ^ ^ U U / W 1 b !.{.=XK.& B ! G.^.<.Q ^ W 1 b !.w.: d } t & t.`.$X=X*X$X).t., ",
"* %.).+X=X=X=X{.Q.u 1 K T ^ ^ ( R { R ^ ^ ^ U U ^ W 1 b !.{.=XK.& B ( I./.<.E Q Z O v ).w.& s } s & t.`.$X=X=X%X`.L., ",
"* $.Q.{.@X+X+X^.L.f i K U ^ ( ( R { R ( ^ ^ U U ^ W 1 b !.{.=XK.& B ( G.Q.5.<.<.=.c #.R.0.4 f { f 4 w.Q.|.+X+XoXQ.w.2 ",
"1 t x ]  . .| b c Y Y K U ^ ( ( R { R ( ^ ^ U U ^ W 1 b !.{.=XK.& B ( *.$.I.E.E.E.R.t.b F W R { R W F v ]  . .| b j 2 ",
"2 * o .       . @ W ( } U ^ ^ ( R { R ( ^ ^ U U ^ W 1 b !.{.=XK.& B ( L J Y.).)./.).J.+ 6 ( R { ~ ( 5 . .     . o O 1 ",
"2 , * * * - - * 1 W ^ } U ^ ^ ( R { R ( ^ ^ U U ^ W O x !.{.=XK.  M ) T } Y.).).).).L.> i ( R { R ( i & - - * * * - 2 ",
"2 4 i i i 9 9 w p W / } U ^ ( ( R { R ( ^ ^ U K Y Y b %.!.{.=X~.o.T W U } y.E.E.E.R.e.i M ( R { R ( m w 9 9 i i i 5 2 ",
", n W W W U K Y W ^ / } U ^ ( ( R { R ( ^ ^ T K 9 k Y.Q.^.{.*X%X$X9.1 S } =.<.<.;.@.@.W Q ( R { R ( W W L K W W W C 2 ",
", m ( ( ( T } / ( ( / } U ^ ( ( R { R ( ( ^ T K , u !.).^.{.*X*X-X9.+ k } W Q Q W J L ( ( ( R { R ( ( ( O.} ^ ( ( I 2 ",
", m ( ( ( T } / ( ( ^ } T ( ( ( ~ { ~ ( ( ( O.K 3 d !.)./.}.=X=X;X9.* S } / ( ( ( } O.( ( ( ~ { ~ ( ( ( O.} ^ ( ( I 2 ",
"1 a I I I D H I I I I H D I I I L H L I I I D S 2 u J.L.L.W.}.}.}.&.* f H I I I I H D I I I L H L I I I D D I I I B 2 ",
"2 2 3 3 3 3 3 3 3 3 3 3 3 3 3 3 3 3 3 3 3 3 3 3 2 2 r r r u g g g 8 1 2 3 3 3 3 3 3 3 3 3 3 3 3 3 3 3 4 3 3 3 3 3 3 2 ",
"2 , - - - : 1 - - - - 1 : - - - , : , - - - , 1 2 1 + o O o o o o * 2 1 , - - - - : : - - - - 1 , - - - : : - - - , 1 "
};
