/* XPM */
static char *auy7f_dikq8[] = {
/* columns rows colors chars-per-pixel */
"59 59 158 2 ",
"   c #1E0F15",
".  c #1F1117",
"X  c #1F1219",
"o  c #201117",
"O  c #22141A",
"+  c #25181E",
"@  c #2B1A1E",
"#  c #261720",
"$  c #271A20",
"%  c #2A1C24",
"&  c #2D1D2A",
"*  c #301F2E",
"=  c #2A2125",
"-  c #2D2429",
";  c #2F292C",
":  c #342324",
">  c #3A2525",
",  c #32222E",
"<  c #322C2F",
"1  c #382D2D",
"2  c #352334",
"3  c #382437",
"4  c #352C32",
"5  c #382F36",
"6  c #372538",
"7  c #39263A",
"8  c #3C2A3C",
"9  c #363636",
"0  c #3A3435",
"q  c #373837",
"w  c #373438",
"e  c #3C343B",
"r  c #373838",
"t  c #412826",
"y  c #442E2B",
"u  c #4A2F2B",
"i  c #4C342F",
"p  c #55362F",
"a  c #423534",
"s  c #4C3431",
"d  c #41363F",
"f  c #423C3B",
"g  c #553A33",
"h  c #593B33",
"j  c #563E38",
"k  c #49403B",
"l  c #5A4138",
"z  c #654035",
"x  c #694B3F",
"c  c #3C2D42",
"v  c #3E3045",
"b  c #3E364A",
"n  c #433B43",
"m  c #40354B",
"M  c #483E48",
"N  c #443F56",
"B  c #474048",
"V  c #4A434B",
"C  c #53474C",
"Z  c #4F4750",
"A  c #4E4951",
"S  c #47455C",
"D  c #48445A",
"F  c #524B54",
"G  c #534F58",
"H  c #55525A",
"J  c #5A565F",
"K  c #604C41",
"L  c #6F4E41",
"P  c #704F41",
"I  c #745345",
"U  c #7A5645",
"Y  c #7B5947",
"T  c #7C5948",
"R  c #4B4D66",
"E  c #4E546E",
"W  c #5B5760",
"Q  c #5C5A63",
"!  c #53556A",
"~  c #505772",
"^  c #505872",
"/  c #5C5E76",
"(  c #625D66",
")  c #645F68",
"_  c #65646E",
"`  c #69646E",
"'  c #6B6771",
"]  c #6D6B74",
"[  c #726F79",
"{  c #6F717B",
"}  c #75737D",
"|  c #825D4A",
" . c #8B5F4A",
".. c #935F49",
"X. c #93644D",
"o. c #9E654B",
"O. c #A56C51",
"+. c #AA6E51",
"@. c #B47454",
"#. c #586987",
"$. c #5A718E",
"%. c #5D7392",
"&. c #5A7894",
"*. c #777580",
"=. c #757A83",
"-. c #7B7984",
";. c #7D7D88",
":. c #697994",
">. c #617D9D",
",. c #727E98",
"<. c #847C81",
"1. c #807F8A",
"2. c #7D818C",
"3. c #688CAD",
"4. c #6B93B6",
"5. c #729BD3",
"6. c #72A1C6",
"7. c #73A3C8",
"8. c #76A9CF",
"9. c #77ABD2",
"0. c #78ADD4",
"q. c #7BA1D9",
"w. c #83828E",
"e. c #8D858A",
"r. c #838691",
"t. c #888793",
"y. c #838B94",
"u. c #898994",
"i. c #8C8E99",
"p. c #8D919C",
"a. c #91929E",
"s. c #8E96A1",
"d. c #9394A0",
"f. c #919BA6",
"g. c #949DA8",
"h. c #989DA9",
"j. c #96A0AC",
"k. c #9BA1AD",
"l. c #9DA4B0",
"z. c #9DA5B2",
"x. c #9FAAB6",
"c. c #A0A9B5",
"v. c #A3ACB8",
"b. c #A4B1BE",
"n. c #A5B3BF",
"m. c #86A9D9",
"M. c #92B3DE",
"N. c #A7B3C0",
"B. c #A7B4C1",
"V. c #A9B6C3",
"C. c #AAB8C5",
"Z. c #AFBFCC",
"A. c #B0BFCC",
"S. c #B1C1CE",
"D. c #B2C3D0",
"F. c #B3C4D1",
"G. c #B4C4D1",
"H. c #B5C6D3",
/* pixels */
"2 S ^ ~ R 8 7 7 7 7 7 7 7 7 7 2 * * * * , , , * , * * * * , , , , , , * , 2 2 2 2 2 2 2 2 2 2 2 2 2 2 2 2 2 2 D / / / ",
"7 >.9.8.4.v 7 7 7 7 7 7 7 7 7 2 O O O O O O O O O O O O O O O O O O O O O & 2 , , , , 2 , , , , 2 2 , , , , , :.5.5.5.",
"7 >.0.0.4.v 7 7 7 7 7 7 7 7 7 2 O O O O O O O O O O O O O O O O O O O O O % 2 , , , , , , , , , , , , , , , , ,.q.q.q.",
"7 >.9.9.4.v 7 7 7 7 7 7 7 7 7 2 O O O O O O O O O O O O O O O O O O O O O % , , , , , , , , , 2 , , , , , , , ,.M.m.M.",
"7 S E E R 8 7 7 7 7 7 7 & % $ n 2.r.r.} ' ' ' ' ' ' ' ' ' ' ' ' ' ' ' ' ' d # $ % 2 2 2 2 2 2 2 2 2 2 2 2 2 2 N ! ! ! ",
"7 7 3 3 7 7 7 7 7 7 7 6 # O . A S.G.G.l.a.a.a.a.a.a.a.a.a.a.d.d.a.a.a.a.a.V o O O 2 7 7 7 7 7 7 7 7 7 7 7 7 7 2 * * * ",
"7 7 7 7 7 7 7 7 7 7 7 7 O O   A Z.S.S.l.a.a.a.a.a.a.a.a.a.a.a.a.a.a.a.a.a.V O O O 2 7 7 7 7 7 7 7 7 7 7 7 7 7 2 , , , ",
"7 7 7 7 7 7 7 7 6 2 2 2 5 0 5 Q V.C.C.p.;.;.;.;.;.;.;.;.;.;.;.;.;.;.;.;.;.M O O O 2 7 7 7 7 7 7 7 7 7 7 7 7 7 2 , , , ",
"7 7 7 7 7 7 7 7 & O O = p.B.n.x.d.d.d.F % % % % % % % % % % % % % % % % % + O O O 2 7 7 7 7 7 7 7 7 7 7 7 7 7 2 , , , ",
"7 7 7 7 7 7 7 7 & O O % j.F.D.N.a.a.p.B . O O O O O O O O O O O O O O O O O O O O 2 7 7 7 7 7 7 7 7 7 7 7 7 7 2 , , , ",
"7 7 7 7 7 7 7 7 & O O % j.F.D.N.a.a.a.B O O O o o o O O O O O o . O O O O O o o O 2 7 7 7 7 7 7 7 7 7 7 7 7 7 2 , , , ",
"7 7 7 7 7 7 7 7 & O O % i.v.v.k.a.a.a.B O O = Q _ _ B O O + H _ _ F O O O V _ _ Q 2 & & 2 7 7 7 7 7 7 7 7 7 7 2 , , , ",
"7 7 7 7 7 7 7 7 & O O % -.a.a.a.a.a.a.B O O 5 n.F.G.} O O % g.G.G.p.+ O O 2.G.G.x.< O O % 7 7 7 7 7 7 7 7 7 7 2 , , , ",
"7 7 7 7 7 7 7 7 & O O % -.a.a.a.a.a.p.B O O 5 n.S.F.{ O O % g.D.F.p.+ O O ;.F.S.x.< O O & 7 7 7 7 7 7 7 7 7 7 2 , , , ",
"7 7 7 7 7 7 7 7 & O O % -.a.a.a.a.a.a.B O O 5 n.S.F.{ O O % g.F.F.p.+ O O ;.D.S.x.< O O & 7 7 7 7 7 7 7 7 7 7 2 , , , ",
"7 7 7 7 7 7 7 7 & O O % -.a.p.h.V.V.V.F . O 5 n.S.F.{ O O % g.F.F.p.+ O O ;.D.S.x.< O O & 7 7 7 7 7 7 7 7 7 7 2 , , , ",
"7 7 7 7 7 7 7 7 & O O % -.a.a.k.S.S.S.H . O 5 n.S.D.{ O O % g.D.F.p.+ O O ;.F.D.x.< O O & 7 7 7 7 7 7 7 7 7 7 2 , , , ",
"7 7 7 7 7 7 7 7 & O O % -.a.a.k.S.S.S.H     4 n.S.F.{   . $ f.D.F.p.O . . ;.F.D.x.< O O & 7 7 7 7 7 7 7 7 7 7 2 , , , ",
"7 7 7 7 7 7 7 7 & O O % -.a.a.k.S.S.S.{ B B W V.S.D.r.B B A l.D.D.g.V V V p.D.D.x.< O O & 7 7 7 7 7 7 7 7 7 7 2 , , , ",
"7 7 7 7 7 7 7 7 & O O % -.a.a.h.S.S.S.Z.Z.Z.Z.S.S.S.Z.Z.Z.Z.S.S.S.S.Z.Z.Z.Z.S.D.x.< O O & 7 7 7 7 7 7 7 7 7 7 2 , , , ",
"7 7 7 7 7 7 7 7 & O O % -.a.a.h.S.S.S.S.S.S.S.S.S.S.S.S.S.S.S.S.S.S.S.S.S.S.S.D.x.< O O & 7 7 7 7 7 7 7 7 7 7 2 , , , ",
"7 7 7 7 7 7 7 7 & O O % -.a.a.k.S.S.S.S.S.S.S.S.S.S.S.S.S.S.S.S.S.S.S.S.S.S.S.D.x.< O O & 7 7 7 7 7 7 7 7 7 7 2 , , , ",
"7 2 2 2 2 2 2 2 % O O O n V B _ k.l.l.l.l.l.l.l.l.l.2.J W W W W J ] k.l.l.} J W G , % % , 7 7 7 2 2 2 2 % % % % $ $ $ ",
"7 2 , , , , , , % O O O O o . n i.p.p.p.a.a.a.a.a.a.J . . . . .   e i.a.p.B   . O * , , 2 7 7 7 2 , , & O O O O O O O ",
"7 2 , , , , , , % O O O O O o n p.a.a.a.a.a.a.a.a.a.W o O O O O o d i.a.a.V o O O , , , 2 7 7 7 2 , , & O O O O O O O ",
"7 2 2 2 , * * * $ O O O + + O d 1.w.w.u.a.a.a.a.a.a.) - , , , , - M 1.w.w.M O O O & * * 2 7 7 7 , * * , , , , $ O O O ",
"7 7 7 7 2 O O O O O O O < w w 4 - - - ] a.a.a.a.a.a.u.w.w.w.w.w.t.] , - - + O O O O O O & 7 7 7 $ O O e 1.w.w.B O O O ",
"7 7 7 7 2 O O O O O O O 9 r r < O O O ` a.a.a.a.a.a.a.a.a.a.a.a.d.[ O O O O O O O O O O & 7 7 7 $ O O e i.a.a.V O O O ",
"7 7 7 7 2 O O O o o . O 9 r r < O O O ` d.a.a.a.a.a.a.p.p.p.a.a.d.[ O O O O . . o O O O & 7 7 7 # o . e i.a.a.V O O O ",
"7 2 & & 2 V F Z H Q Q W w ; ; - = = = H ] ] ' ) ( ( ;.l.l.k.] ( ) F O O O B Q Q H % O O $ * * , M F V _ k.l.l.G o O O ",
"7 % O O 4 u.a.a.c.S.D.V.e o O % q q q q q q 9 O O . _ D.S.C.n o O O O O O 2.G.D.x.< O O O O O + } a.a.h.S.S.S.Q . O O ",
"7 % O O 4 t.a.a.c.S.S.V.e O O % q q q q q q 9 O O o _ D.S.C.n o O O O O O ;.F.D.x.< O O O O O + } a.a.h.S.S.S.Q . O O ",
"7 % O O 4 t.a.p.c.S.S.V.e O O % q q q q q q 9 $ O O _ S.S.V.M O $ + O O O 2.G.D.x.< O O O O O % *.d.a.h.C.Z.Z.W O O O ",
"7 % O O 4 t.a.p.c.S.S.V.e O O % q q q - % % < ] } } t.h.h.g.s.p.s.=.9 < < y.F.D.x.< O O n } } } l.V.V.s.V B B 8 2 2 2 ",
"7 % O O 4 t.a.p.c.S.S.V.e O O % q q q = O O < t.a.a.a.p.p.a.C.G.G.f.r q q y.D.D.x.< O O F d.a.d.V.D.G.p.O o o & 7 7 7 ",
"7 % O O 4 u.a.a.c.F.G.C.e O O % q q q = O O < t.d.a.a.p.p.a.C.G.G.f.r q q y.G.G.x.< O . F d.a.d.C.F.G.s.+ O O * 7 7 7 ",
"7 % O O < <.e.e.i.f.f.p.5 O O % q q q - % $ < ] } } t.h.h.g.f.f.f.=.r q q { f.f.y.a > : C *.} *.p.f.f.=.% $ $ 2 7 7 7 ",
"7 % O O : Y | | j $ % $ O O O % q q q q q q 9 % $ O _ S.A.V.M $ $ - q q q - $ $ > I T T j $ $ $ $ $ $ & 6 7 7 7 7 7 7 ",
"7 % O O : U | | g O O O O O O % q q q q q q 9 O O . _ D.S.C.n o O % q q q = O O % U | | j O O O O O O $ 7 7 7 7 7 7 7 ",
"7 % O O : U | | g O O O O O O % q q q q q q 9 O O o _ D.S.C.n O O % q q q = O O % U | | j O O O O O O $ 7 7 7 7 7 7 7 ",
"2 $ O O + i i i > O O O i h h l K K K I T T L + O o _ D.S.C.n o O > U T T y O O + i i i > O O O & & & , 7 7 7 7 7 7 7 ",
", $ O O O O O O O O O + P | | | | | | O.@.@.o.@ O . _ D.S.C.n o O u @.@.@.h X O O O O O O O O O 2 7 7 7 7 7 7 7 7 7 7 ",
", $ O O O O O O O O O + L | | | | | | O.@.@.o.@ O . _ F.S.C.n o O u @.@.@.h X O O O O O O O O O 2 7 7 7 7 7 7 7 7 7 7 ",
", % O O O O O O O O O + x Y Y Y Y Y Y X.+.+...@ O o Q n.n.x.e O O u O.O.O.p O O O O O O O O O O 2 7 7 7 7 7 7 7 7 7 7 ",
", 2 2 2 2 2 2 2 & O O O 0 f f f f f f f k k a + O O = 5 5 5 9 9 9 0 f k k : O O O 2 2 2 2 2 2 2 7 7 7 7 7 7 7 7 7 7 7 ",
", 2 7 7 7 7 7 7 & O O O 9 q q q q q q q q q 9 O O O O O O O 4 r q q q q q = O O O 2 7 7 7 7 7 7 7 7 7 7 7 7 7 7 7 7 7 ",
", 2 7 7 7 7 7 7 & O O O 9 q q q q q q q q q 9 O O O O X X O 4 r q q q q w = O O O 2 7 7 7 7 7 7 7 7 7 7 7 7 7 7 7 7 7 ",
", 2 7 7 7 , , , - = = = 9 q q q q q q q q q 9 O O O > p p p 1 ; ; < q q w ; = = = , , , 2 7 7 7 7 7 7 7 7 7 7 7 7 7 7 ",
", 2 7 7 2 O O O - q q q q q q q q q q q q q 9 O O O z @.@.+.t O O % q q q q q q 9 + O O & 7 7 7 7 7 7 7 7 7 7 7 7 7 7 ",
", 2 7 7 2 O O O - q q q q q q q q q q q q q 9 O O O z @.@.+.t O O % q q q q q q 9 O O O & 7 7 7 7 7 7 7 7 7 7 7 7 7 7 ",
", 2 7 7 2 O O O - q q q q q q q q q q q q q 9 O O O z @.@.+.t O O % q q q q q q 9 O O O & 7 7 7 7 7 7 7 7 7 7 7 7 7 7 ",
", 2 7 7 2 O O O - q q q q q q q q q q q q q 9 O O O g X.X. .> O O % q q q q q q 9 O O O & 7 7 7 7 7 7 7 7 7 7 7 7 7 7 ",
", 2 7 7 2 O O O - q q q q q q q q q q q q q 9 O O O s | | Y : O O % q q q q q q 9 + O O & 7 7 7 7 7 7 7 7 7 7 7 7 7 7 ",
"2 2 7 7 2 O O O - q q q q q q q q q q q q q 9 O O O s | | T : O O % q q q q q q 9 O O O & 7 7 7 7 7 7 7 7 7 7 7 7 7 7 ",
"& b D N b % # # - w q q w w w w q w q q q w 5 $ # O s I I L > # # % w w q q q w w $ # # & 7 7 7 7 7 7 7 7 7 7 m N N N ",
"O $.7.7.3.c 6 7 7 7 7 7 7 7 7 7 7 7 7 7 7 7 7 6 7 6 7 8 8 8 7 6 6 7 7 7 7 7 7 7 7 7 6 6 7 7 7 7 7 7 7 7 7 7 7 $.7.6.6.",
"O &.0.0.4.v 7 7 7 7 7 7 7 7 7 7 7 7 7 7 7 7 7 7 7 7 7 7 7 7 7 7 7 7 7 7 7 7 7 7 7 7 7 7 7 7 7 7 7 7 7 7 7 7 7 %.0.9.9.",
"O &.0.0.4.v 7 7 7 7 7 7 7 7 7 7 7 7 7 7 7 7 7 7 7 7 7 7 7 7 7 7 7 7 7 7 7 7 7 7 7 7 7 7 7 7 7 7 7 7 7 7 7 7 7 %.0.9.9.",
", E %.%.#.c 7 7 7 7 7 7 7 7 7 7 7 7 7 7 7 7 7 7 7 7 7 7 7 7 7 7 7 7 7 7 7 7 7 7 7 7 7 7 7 7 7 7 7 7 7 7 7 7 7 E %.$.$."
};
