/* XPM */
static char *aq239_3t3v6[] = {
/* columns rows colors chars-per-pixel */
"59 59 60 1 ",
"  c #22141A",
". c #27181E",
"X c #261720",
"o c #271821",
"O c #2C1C27",
"+ c #2E1D2A",
"@ c #301F2B",
"# c #2F202A",
"$ c #33232D",
"% c #38262D",
"& c #362533",
"* c #382733",
"= c #3B2A33",
"- c #372538",
"; c #39263A",
": c #3D2C3A",
"> c #422E3D",
", c #44313D",
"< c #48323A",
"1 c #48353F",
"2 c #4A343F",
"3 c #4D363F",
"4 c #4D373F",
"5 c #3F2B40",
"6 c #422D43",
"7 c #442F45",
"8 c #443140",
"9 c #463047",
"0 c #493440",
"q c #4A3540",
"w c #4E3740",
"e c #4B3544",
"r c #4B3840",
"t c #4F3840",
"y c #473148",
"u c #483148",
"i c #4F364F",
"p c #503941",
"a c #533A46",
"s c #533B48",
"d c #573E4B",
"f c #4F3650",
"g c #503750",
"h c #523852",
"j c #543954",
"k c #553954",
"l c #5B4149",
"z c #5D4348",
"x c #5A404C",
"c c #5D424C",
"v c #614649",
"b c #63474C",
"n c #65494A",
"m c #674A4D",
"M c #694B49",
"N c #694C49",
"B c #694C4F",
"V c #71524F",
"C c #725350",
"Z c #735450",
/* pixels */
"                                                           ",
"OOOOOOOOOOOOOOOOOOOO+@@+OOOOOO+@@@@@@@@@@@@@@@@OOOOOOOOO+@@",
"yyyyyyyyyyyyyyyyyyyyikkgyyyyyyfkkkkkkkkhhkkkkkgyyyyyyyyyukk",
"yyyyyyyyyyyyyyyyyyyyikkgyyyyyyfkkkkkkkkkkkkkkkgyyyyyyyyyukk",
"yyyyyyyyyyyyyyyyyyyyikkgyyyyyygkkkkkkkkkkkkkkkhuyyyyyyyyukk",
"dyyyyyulvvvvvvvvvvvvvbbvvvvvvvvbbbbbbbbbvvbbbbvvvvvvvsyyuuu",
"cyyyyyuvNMMMMMMMMMMMMMMMMMMMMMMMMMMMMMMMMMMMMMMMMMMMNdyyyyy",
"cyyyyyuvMMMMMMMMMMMMMMMMMMMMMMMMMMMMMMMMMMMMMMMMMMMMMdyyyyy",
"cyyyyyuvMMMMMMMMMMMMMMMMMMMMMMMMMMMMMMMMMMMMMMMMMMMMMdyyyyy",
"cyyyyyuvMMMMMMMMMMMMMMMMMMMMMMMMMMMMMMMMMMMMMMMMMMMMMdyyyyy",
"cyyyyyuvMMMMMMMMMMMMMMMMMMMMMMMMMMMMMMMMMMMMMMMMMMMMMdyyyyy",
"cyyyyyuvNMMMMMMMMMMMMMMMMMMMMMMMMMMMMMMMMMMMMMMMMMMMNdyyyyy",
"cyyyyyumVVVVVVVVVVVVVVVVVVVVVVVVVVVVVVVVVVVVVVVVVVVVVlyyyyy",
"cyyyyyuBZCCCCCCCCCCCCCCCCCCCCCCCCCCCCCCCCCCCCCCCCCCCZcyyyyy",
"cyyyyyuBZCCCZZZCCCCCCCZCCZCCCCCCCCZCCZCCCCCCZZZZCCCCZcyyyyy",
"cyy9666znnnnnnnnnnnnnnnnnnnnnnnnnnnnnnnnnnnnnnnnnnnnna66666",
"cyy7;;;2ttttttttwtttttttttttttttttttttttttttttttttttt>;;;;;",
"cyy7;;;2ttttttttttttttttttttttttttttttttttttttttttttt>;;;;;",
"cyy7;;;2ttttttttttttttttttttttttttttttttttttttttttttp>;;;;;",
"cyy7;;;2tttttttttttttttttttttttttttttttttttttttttttttq776;;",
"cyy7;;;2ttttttttttttttttttttttttttttttttttttttttttttteyy7;;",
"cyy7;;;2ptttttttttttttttttttttttttttttttttttttttttttteyy7;;",
"cyy7;;;,qqwtttttttttttttttttttttttttttttttttttttttqqq8665;;",
"cyy7;;;>,,qttttttttttttttttttttttttttttttttttttttt,,,:;;;;;",
"cyy7;;;>,,qptttttttttttttttttttttttttptttttttttttt,,,:;;;;;",
"xyy7;-->,,2www33w33333333333wwww33333333ww333333w3,,,:;;;--",
"uyy6X..&;;;;;;;;;;;;;;;;;;;;;;;;;;;;;;;;;;;;;;;;;;;;;;;;&..",
"yyy>   &;;;;;;;;;;;;;;;;;;;;;;;;;;;;;;;;;;;;;;;;;;;;;;;;&  ",
"yyu>   &;;;;;;;;;;;;;;;;;;;;;;;;;;;;;;;;;;;;;;;;;;;;;;;;&  ",
"yyy6+++;::>>>>>>>>>>>>>>>>>>>>>>>>>>>>>>>>>>>>>>>>>:::;;&++",
"yyy7;;;>,,2pttppppppppppttppppppppppttppppppttpppt8,,:;;;;;",
"yyy7;;;>,,2ttttttttttttttttttttttttttttttttttttttt8,,:;;;;;",
"uyy7;;;>,,qtttttttttttttttttttttttttttttttttttttttq,,;---;;",
"xyy7;;;2tttttttttttttttttttttttttttttttttttttttttttwt% .O;;",
"cyy7;;;2ptttttttttttttttttttttttttttttttttttttttttttp%  o;;",
"cyy7;;;2ptttttttttttttttttttttttttttttttttttttttttttp%  o;;",
"cyy6+++>q2wttttttttt3333ttttttttttttttttttttttttttqqq=+++++",
"cyy>   :8,2tttttttttt333tttttttttttttttttttttttttt,,,:;;&  ",
"cyu>   :8,qtttppppppttttttpppttttptpptptttpppptttt88,:;;&  ",
"cyy6o.X;,>,332<<<<<<<<<<<<<<<<<<<<<<<<<<<<<<<<<2ww,>>;&-$..",
"cyy7;;-;;;;;;&............................... o;;;;;;+  o-;",
"cyy7;;;;;;;;;&                                X;;;;;;+  o;;",
"cyy7;;;;;;;;;&                                .;;;;;;+  o;;",
"cyy6+OO*;;>,,>=========*$$$.  O$$$=============,,,:;;-@@+OO",
"cyy>   =::,rrrtttttttrt2::=.  $::,trtttttttttttrrr,::;;;&  ",
"cyy>   *::,rrrrrrrrrrrr2::=.  $::,rrrrrrrrrrrrrrrr,::;;;&  ",
"cyy>.  =,>2rrrrrrrrrrrr2>>:.  *,>,rrrrrrrrrrrrrrrr,>>;&&@  ",
"cyy>.  ,rrrrrrrrrrrrrrrrrr2.  =rrrrrrrrrrrrrrrrrrrrrr$     ",
"cyy>   ,trrrrrrrrrrrrrrrrr2.  =trrrrrrrrrrrrrrrrrrrrt$     ",
"cyy>   ,trrrrrrrrrrrrrrrrr2.  =trrrrrrrrrrrrrrrrrrrrt$     ",
"cyy>   =,,,,,,,,,,,,,,,,,,:.  *,,,,,,,,,,,,,,,,,,,,,,$     ",
"cyy>   *::::::::::::::::::=.  $::::::::::::::::::::::#     ",
"cyy>.  =:::::::::::::::::::.  $::::::::::::::::::::::$     ",
"dyy>   $*******************.  $*********************=O     ",
"yyy>                                                       ",
"yyy>                                                       ",
"yyy>                                                       ",
"yyy>                                                       ",
"yyy>                                                       "
};
